<svg width="20" height="20" viewBox="0 0 20 20" fill="none" xmlns="http://www.w3.org/2000/svg">
<path fill-rule="evenodd" clip-rule="evenodd" d="M2 1H18C18.2652 1 18.5196 1.10536 18.7071 1.29289C18.8946 1.48043 19 1.73478 19 2C19 2.26522 18.8946 2.51957 18.7071 2.70711C18.5196 2.89464 18.2652 3 18 3H2C1.73478 3 1.48043 2.89464 1.29289 2.70711C1.10536 2.51957 1 2.26522 1 2C1 1.73478 1.10536 1.48043 1.29289 1.29289C1.48043 1.10536 1.73478 1 2 1ZM2 9H18C18.2652 9 18.5196 9.10536 18.7071 9.29289C18.8946 9.48043 19 9.73478 19 10C19 10.2652 18.8946 10.5196 18.7071 10.7071C18.5196 10.8946 18.2652 11 18 11H2C1.73478 11 1.48043 10.8946 1.29289 10.7071C1.10536 10.5196 1 10.2652 1 10C1 9.73478 1.10536 9.48043 1.29289 9.29289C1.48043 9.10536 1.73478 9 2 9ZM2 17H18C18.2652 17 18.5196 17.1054 18.7071 17.2929C18.8946 17.4804 19 17.7348 19 18C19 18.2652 18.8946 18.5196 18.7071 18.7071C18.5196 18.8946 18.2652 19 18 19H2C1.73478 19 1.48043 18.8946 1.29289 18.7071C1.10536 18.5196 1 18.2652 1 18C1 17.7348 1.10536 17.4804 1.29289 17.2929C1.48043 17.1054 1.73478 17 2 17Z" fill="#A1A1AA"/>
</svg>
