<svg xmlns="http://www.w3.org/2000/svg" viewBox="0 0 24 24"><path fill-rule="evenodd" d="M18.036 3.157c1.09.162 1.973.504 2.67 1.273.695.77 1.004 1.747 1.151 2.952.132 1.082.142 2.44.142 4.13v.545c0 1.89 0 3.388-.142 4.56-.147 1.205-.456 2.181-1.152 2.952-.696.769-1.579 1.11-2.67 1.273-.971.144-2.19.156-3.703.157h-4.245c-1.71 0-3.064 0-4.124-.157-1.09-.163-1.973-.504-2.67-1.273-.695-.77-1.004-1.747-1.151-2.952-.12-.993-.14-2.217-.142-3.715v-1.805c.003-1.499.021-2.724.142-3.715.147-1.205.456-2.182 1.151-2.952.697-.77 1.58-1.11 2.67-1.273.884-.132 1.971-.153 3.298-.157h5.477c1.327.004 2.415.025 3.298.157m-3.448 1.386h-5.18c-1.397.003-2.44.021-3.26.143-.935.139-1.475.4-1.87.835-.392.435-.628 1.032-.754 2.067-.12.987-.13 2.266-.13 4.026V12c0 1.962.002 3.355.13 4.413.126 1.034.362 1.63.755 2.065.394.435.934.697 1.87.835.887.132 2.037.143 3.617.144h4.093c1.774 0 3.034-.002 3.99-.144.936-.138 1.475-.4 1.869-.835s.63-1.031.755-2.066c.12-.987.13-2.266.13-4.027V12c0-1.961-.002-3.354-.13-4.412-.126-1.034-.362-1.63-.755-2.066-.394-.435-.933-.696-1.87-.835-.818-.122-1.861-.14-3.26-.143m3.057 2.573q.139.015.261.085a.7.7 0 0 1 .212.19.8.8 0 0 1 .13.264.85.85 0 0 1-.048.588q-.065.137-.172.234l-2.043 1.883c-.825.76-1.493 1.376-2.083 1.796-.614.437-1.212.712-1.902.712-.689 0-1.287-.276-1.902-.712-.59-.42-1.258-1.036-2.083-1.795L5.972 8.478a.8.8 0 0 1-.172-.234.83.83 0 0 1-.048-.588.8.8 0 0 1 .13-.265.67.67 0 0 1 .471-.274.65.65 0 0 1 .51.176l2.01 1.85c.869.8 1.47 1.352 1.98 1.715.492.35.826.468 1.147.468s.655-.118 1.147-.468c.51-.363 1.112-.916 1.98-1.715l2.008-1.851a.7.7 0 0 1 .24-.144q.132-.045.27-.032"/></svg>