<svg xmlns="http://www.w3.org/2000/svg" viewBox="0 0 24 24"><path fill-rule="evenodd" d="M12 2c4.43 0 8 3.715 8 8.272 0 2.2-.616 4.563-1.706 6.604-1.088 2.038-2.677 3.81-4.666 4.755a3.79 3.79 0 0 1-3.256 0c-1.989-.946-3.578-2.716-4.666-4.755C4.616 14.836 4 12.472 4 10.272 4 5.715 7.57 2 12 2m0 1.395c-3.65 0-6.629 3.067-6.629 6.877 0 1.951.552 4.086 1.54 5.938.99 1.854 2.388 3.371 4.041 4.157a2.43 2.43 0 0 0 2.095 0c1.654-.786 3.053-2.303 4.042-4.157.988-1.851 1.54-3.987 1.54-5.938 0-3.81-2.98-6.877-6.629-6.877m0 3.256a3.4 3.4 0 0 1 2.424 1.022 3.52 3.52 0 0 1 1.005 2.466 3.52 3.52 0 0 1-1.005 2.467A3.4 3.4 0 0 1 12 13.628c-.91 0-1.781-.368-2.424-1.022a3.52 3.52 0 0 1-1.005-2.467 3.52 3.52 0 0 1 1.005-2.466A3.4 3.4 0 0 1 12 6.65m0 1.395a2.03 2.03 0 0 0-1.455.613 2.1 2.1 0 0 0-.602 1.48 2.13 2.13 0 0 0 .602 1.48 2.026 2.026 0 0 0 2.91 0c.385-.392.602-.925.602-1.48s-.217-1.087-.602-1.48A2.04 2.04 0 0 0 12 8.046"/></svg>