<svg xmlns="http://www.w3.org/2000/svg" viewBox="0 0 24 24"><path fill-rule="evenodd" d="M11.949 2h.102c1.68 0 3.012 0 4.053.142 1.072.147 1.94.456 2.624 1.152.684.697.988 1.58 1.132 2.67.14 1.06.14 2.414.14 4.123v3.826c0 1.71 0 3.064-.14 4.123-.144 1.09-.448 1.973-1.132 2.67-.685.696-1.552 1.005-2.624 1.152-1.042.142-2.372.142-4.053.142h-.102c-1.68 0-3.012 0-4.053-.142-1.072-.147-1.94-.456-2.624-1.152-.684-.697-.988-1.58-1.132-2.67C4 16.976 4 15.622 4 13.913v-3.826c0-1.71 0-3.064.14-4.123.144-1.09.448-1.973 1.132-2.67.685-.696 1.552-1.005 2.624-1.152C8.938 2 10.268 2 11.949 2M8.078 3.526c-.92.125-1.45.361-1.838.755-.386.393-.618.933-.741 1.869-.127.956-.128 2.216-.128 3.99v3.72c0 1.774.001 3.035.128 3.991.123.935.355 1.475.742 1.868.387.394.917.63 1.837.755.94.129 2.178.13 3.921.13 1.744 0 2.983-.001 3.922-.13.92-.125 1.45-.361 1.836-.755.387-.393.62-.933.743-1.869.126-.955.128-2.216.128-3.99v-3.72c0-1.774-.002-3.034-.128-3.991-.124-.935-.356-1.475-.743-1.868-.387-.394-.917-.63-1.837-.755-.94-.129-2.177-.13-3.92-.13-1.745 0-2.981.001-3.922.13m.493 14.986c0-.185.073-.363.201-.494a.68.68 0 0 1 .485-.204h5.486a.68.68 0 0 1 .485.204.704.704 0 0 1 0 .987.68.68 0 0 1-.485.204H9.257a.68.68 0 0 1-.485-.204.7.7 0 0 1-.2-.493" clip-rule="evenodd"/></svg>