<svg xmlns="http://www.w3.org/2000/svg" viewBox="0 0 24 24"><path fill-rule="evenodd" d="m8.895 3.192 1.294 1.73c.851 1.137.775 2.727-.235 3.732L9.71 8.9a.7.7 0 0 0-.008.314c.065.419.414 1.306 1.879 2.765 1.464 1.458 2.357 1.807 2.781 1.873.107.023.218.02.323-.01l.419-.416c.898-.894 2.276-1.061 3.388-.456l1.959 1.068c1.679.912 2.102 3.196.728 4.565l-1.457 1.45c-.46.457-1.077.838-1.83.909-1.856.174-6.181-.048-10.727-4.574-4.243-4.225-5.057-7.91-5.16-9.726-.052-.918.38-1.695.932-2.243l1.61-1.603c1.248-1.243 3.303-1.022 4.348.377m-3.265.715L4.02 5.51c-.338.336-.5.708-.48 1.064.082 1.443.739 4.767 4.71 8.72 4.166 4.148 8.012 4.272 9.5 4.133.303-.028.605-.186.887-.467l1.456-1.45c.593-.59.462-1.665-.377-2.12l-1.958-1.068c-.542-.293-1.176-.197-1.57.196l-.466.465-.215-.216.054.054.078.08.047.047.015.015.018.02-.01.012-.016.014q-.065.06-.14.11c-.081.054-.19.114-.326.165a2.2 2.2 0 0 1-1.098.089c-.889-.137-2.067-.744-3.633-2.303s-2.177-2.73-2.314-3.62c-.07-.455-.014-.822.09-1.1q.087-.235.244-.431l.033-.036.015-.015.01-.012.296-.293c.44-.439.5-1.165.087-1.719l-1.293-1.73c-.52-.694-1.488-.75-2.034-.207"/></svg>